<svg version="1.1" viewBox="0.0 0.0 800.0 600.0" fill="none" stroke="none" stroke-linecap="square" stroke-miterlimit="10" xmlns:xlink="http://www.w3.org/1999/xlink" xmlns="http://www.w3.org/2000/svg"><clipPath id="p.0"><path d="m0 0l800.0 0l0 600.0l-800.0 0l0 -600.0z" clip-rule="nonzero"/></clipPath><g clip-path="url(#p.0)"><path fill="#000000" fill-opacity="0.0" d="m0 0l800.0 0l0 600.0l-800.0 0z" fill-rule="evenodd"/><path fill="#000000" fill-opacity="0.0" d="m214.96524 270.9204c2.6100006 -5.226654 4.196457 -14.883392 -1.0288696 -17.496063c-4.9571533 -2.4785767 -11.004852 2.847412 -15.438324 6.173218c-21.260162 15.948517 -38.348816 47.28717 -31.902893 73.07089c4.6660004 18.664001 46.960983 19.096558 57.632553 3.0892334" fill-rule="evenodd"/><path stroke="#000000" stroke-width="3.0" stroke-linejoin="round" stroke-linecap="butt" d="m214.96524 270.9204c2.6100006 -5.226654 4.196457 -14.883392 -1.0288696 -17.496063c-4.9571533 -2.4785767 -11.004852 2.847412 -15.438324 6.173218c-21.260162 15.948517 -38.348816 47.28717 -31.902893 73.07089c4.6660004 18.664001 46.960983 19.096558 57.632553 3.0892334" fill-rule="evenodd"/><path fill="#000000" fill-opacity="0.0" d="m233.49178 306.37796c-5.0581512 3.3721008 -11.044846 16.022522 -5.146988 17.496063c4.8464813 1.210846 4.1181183 -9.414001 4.1181183 -14.409454" fill-rule="evenodd"/><path stroke="#000000" stroke-width="3.0" stroke-linejoin="round" stroke-linecap="butt" d="m233.49178 306.37796c-5.0581512 3.3721008 -11.044846 16.022522 -5.146988 17.496063c4.8464813 1.210846 4.1181183 -9.414001 4.1181183 -14.409454" fill-rule="evenodd"/><path fill="#000000" fill-opacity="0.0" d="m233.49081 306.37796c3.8822937 -2.5881958 6.6542664 -8.233612 11.320206 -8.233612c2.0869904 0 -0.12980652 4.4400635 1.0288696 6.175873c1.5355988 2.3004456 5.932251 -0.5053711 8.233597 1.0288696c3.9653015 2.6435242 2.5812988 11.193207 7.2047424 12.34906c4.9473877 1.2368469 5.7300415 -13.60083 10.291321 -11.32019c6.9431763 3.4715881 8.936249 18.349915 16.467194 16.467194c3.7947693 -0.94869995 3.4935913 -8.026489 7.204712 -9.262482c3.3507996 -1.1159668 5.83609 6.0004272 9.262482 5.144348c5.417633 -1.3535461 6.673889 -9.251526 11.320221 -12.34906c2.8110962 -1.8740845 0.91030884 8.194061 4.1154785 9.262451c3.000824 1.0002747 4.203888 -7.176117 7.204712 -6.1758423c2.7806396 0.9268799 0.6472168 6.6087036 3.086609 8.233582c4.726074 3.1480408 10.896881 -3.7931213 15.438324 -7.2020874c2.3443604 -1.7597656 10.3063965 -5.162018 8.233612 -3.0892334c-3.1064758 3.1064758 -10.670532 6.635956 -8.233612 10.291321c2.7044983 4.056732 6.444641 -9.262451 11.320221 -9.262451c6.001251 0 3.8947754 12.754486 9.262482 15.438324" fill-rule="evenodd"/><path stroke="#000000" stroke-width="3.0" stroke-linejoin="round" stroke-linecap="butt" d="m233.49081 306.37796c3.8822937 -2.5881958 6.6542664 -8.233612 11.320206 -8.233612c2.0869904 0 -0.12980652 4.4400635 1.0288696 6.175873c1.5355988 2.3004456 5.932251 -0.5053711 8.233597 1.0288696c3.9653015 2.6435242 2.5812988 11.193207 7.2047424 12.34906c4.9473877 1.2368469 5.7300415 -13.60083 10.291321 -11.32019c6.9431763 3.4715881 8.936249 18.349915 16.467194 16.467194c3.7947693 -0.94869995 3.4935913 -8.026489 7.204712 -9.262482c3.3507996 -1.1159668 5.83609 6.0004272 9.262482 5.144348c5.417633 -1.3535461 6.673889 -9.251526 11.320221 -12.34906c2.8110962 -1.8740845 0.91030884 8.194061 4.1154785 9.262451c3.000824 1.0002747 4.203888 -7.176117 7.204712 -6.1758423c2.7806396 0.9268799 0.6472168 6.6087036 3.086609 8.233582c4.726074 3.1480408 10.896881 -3.7931213 15.438324 -7.2020874c2.3443604 -1.7597656 10.3063965 -5.162018 8.233612 -3.0892334c-3.1064758 3.1064758 -10.670532 6.635956 -8.233612 10.291321c2.7044983 4.056732 6.444641 -9.262451 11.320221 -9.262451c6.001251 0 3.8947754 12.754486 9.262482 15.438324" fill-rule="evenodd"/><path fill="#000000" fill-opacity="0.0" d="m411.06693 251.49344c-5.4087524 32.44574 -13.380585 64.87555 -13.380585 97.76904" fill-rule="evenodd"/><path stroke="#000000" stroke-width="3.0" stroke-linejoin="round" stroke-linecap="butt" d="m411.06693 251.49344c-5.4087524 32.44574 -13.380585 64.87555 -13.380585 97.76904" fill-rule="evenodd"/><path fill="#000000" fill-opacity="0.0" d="m391.51312 261.7858c14.19812 -8.118378 45.162537 -24.271255 48.370087 -8.233582c7.28125 36.40628 -32.763916 66.63608 -49.40158 99.82678" fill-rule="evenodd"/><path stroke="#000000" stroke-width="3.0" stroke-linejoin="round" stroke-linecap="butt" d="m391.51312 261.7858c14.19812 -8.118378 45.162537 -24.271255 48.370087 -8.233582c7.28125 36.40628 -32.763916 66.63608 -49.40158 99.82678" fill-rule="evenodd"/><path fill="#000000" fill-opacity="0.0" d="m436.79398 316.97992c5.6321106 -4.5062866 16.259308 -17.803864 9.262451 -19.556427c-0.94155884 -0.23583984 -2.0577393 1.0897217 -2.0577393 2.0603638c0 7.341522 12.30481 18.569214 17.496063 13.37796c8.35376 -8.35376 11.702393 -20.69513 15.438324 -31.902893c1.6417236 -4.9252014 6.7012634 -17.76007 2.0577393 -15.438324c-16.580566 8.290283 -18.638306 47.284546 -2.0577393 55.5748" fill-rule="evenodd"/><path stroke="#000000" stroke-width="3.0" stroke-linejoin="round" stroke-linecap="butt" d="m436.79398 316.97992c5.6321106 -4.5062866 16.259308 -17.803864 9.262451 -19.556427c-0.94155884 -0.23583984 -2.0577393 1.0897217 -2.0577393 2.0603638c0 7.341522 12.30481 18.569214 17.496063 13.37796c8.35376 -8.35376 11.702393 -20.69513 15.438324 -31.902893c1.6417236 -4.9252014 6.7012634 -17.76007 2.0577393 -15.438324c-16.580566 8.290283 -18.638306 47.284546 -2.0577393 55.5748" fill-rule="evenodd"/><path fill="#000000" fill-opacity="0.0" d="m533.73553 283.7357c2.935913 -8.811584 7.633484 -20.359406 2.0577393 -27.7874c-5.6658325 -7.5480347 -21.095459 1.7104034 -26.75592 9.262466c-12.234528 16.32312 29.705505 39.386932 20.582703 57.632538c-2.4259644 4.851898 -8.865906 12.269714 -13.380615 9.262482c-9.542633 -6.3563843 14.730957 -17.588654 21.614197 -26.758545c3.2235718 -4.2944336 3.4051514 -18.20639 7.2020874 -14.409424c5.8727417 5.8726807 11.49884 17.451416 19.556458 15.438293c5.0687866 -1.2663574 11.241821 -13.139679 6.173218 -14.406799c-4.048523 -1.012146 -1.9909058 11.337555 2.0577393 12.34906c5.0698853 1.2666626 19.083496 -8.512848 14.409424 -6.1758423c-2.454773 1.2273865 -2.6625366 7.5679626 0 8.233582c5.658142 1.4145508 10.585632 -4.9984436 15.4383545 -8.233582c3.0740356 -2.0493774 0.42089844 10.291351 4.1154785 10.291351c4.130615 0 -0.8184204 -8.654541 1.0288696 -12.349091c2.3217773 -4.643524 10.7948 0.26400757 15.438293 -2.0577393" fill-rule="evenodd"/><path stroke="#000000" stroke-width="3.0" stroke-linejoin="round" stroke-linecap="butt" d="m533.73553 283.7357c2.935913 -8.811584 7.633484 -20.359406 2.0577393 -27.7874c-5.6658325 -7.5480347 -21.095459 1.7104034 -26.75592 9.262466c-12.234528 16.32312 29.705505 39.386932 20.582703 57.632538c-2.4259644 4.851898 -8.865906 12.269714 -13.380615 9.262482c-9.542633 -6.3563843 14.730957 -17.588654 21.614197 -26.758545c3.2235718 -4.2944336 3.4051514 -18.20639 7.2020874 -14.409424c5.8727417 5.8726807 11.49884 17.451416 19.556458 15.438293c5.0687866 -1.2663574 11.241821 -13.139679 6.173218 -14.406799c-4.048523 -1.012146 -1.9909058 11.337555 2.0577393 12.34906c5.0698853 1.2666626 19.083496 -8.512848 14.409424 -6.1758423c-2.454773 1.2273865 -2.6625366 7.5679626 0 8.233582c5.658142 1.4145508 10.585632 -4.9984436 15.4383545 -8.233582c3.0740356 -2.0493774 0.42089844 10.291351 4.1154785 10.291351c4.130615 0 -0.8184204 -8.654541 1.0288696 -12.349091c2.3217773 -4.643524 10.7948 0.26400757 15.438293 -2.0577393" fill-rule="evenodd"/></g></svg>